<?xml version="1.0" encoding="utf-8"?>
<!-- Generator: Adobe Illustrator 25.2.1, SVG Export Plug-In . SVG Version: 6.00 Build 0)  -->
<svg version="1.1" id="Layer_1" xmlns="http://www.w3.org/2000/svg" xmlns:xlink="http://www.w3.org/1999/xlink" x="0px" y="0px"
	 viewBox="0 0 68 68" style="enable-background:new 0 0 68 68;" xml:space="preserve">
<style type="text/css">
	.st0{clip-path:url(#SVGID_2_);fill:#73E5D3;}
	.st1{clip-path:url(#SVGID_2_);}
	.st2{fill-rule:evenodd;clip-rule:evenodd;fill:#FFFFFF;}
</style>
<g>
	<g>
		<defs>
			<rect id="SVGID_1_" x="1.5" y="1.5" width="65" height="65"/>
		</defs>
		<clipPath id="SVGID_2_">
			<use xlink:href="#SVGID_1_"  style="overflow:visible;"/>
		</clipPath>
		<path class="st0" d="M34,66.5c17.95,0,32.5-14.55,32.5-32.5C66.5,16.05,51.95,1.5,34,1.5S1.5,16.05,1.5,34
			C1.5,51.95,16.05,66.5,34,66.5"/>
		<g class="st1">
			<path class="st2" d="M25.75,28.83h-1.51c-0.03,0-0.06,0.03-0.06,0.06v4.22c0,0.03,0.03,0.06,0.06,0.06h1.51V28.83z M43.52,26.94
				h1.51c1.08,0,1.95,0.88,1.95,1.95v4.22c0,1.08-0.88,1.95-1.95,1.95h-2.61c-0.78,1.24-1.88,2.32-3.06,3.17
				c0,1.52,1.1,2.76,2.65,2.76c4.52,0,8.2,1.19,8.2,6.68c0,0.52-0.42,0.95-0.95,0.95c-0.52,0-0.95-0.42-0.95-0.95
				c0-4.4-2.92-4.79-6.3-4.79c-0.75,0-1.46-0.18-2.08-0.51l-5.05,3.66c-0.32,0.24-0.78,0.26-1.12,0.01l-4.81-3.48
				c-0.52,0.21-1.09,0.32-1.68,0.32c-3.38,0-6.3,0.39-6.3,4.79c0,0.52-0.42,0.95-0.95,0.95c-0.52,0-0.95-0.42-0.95-0.95
				c0-5.49,3.67-6.68,8.2-6.68c1.39,0,2.54-1.08,2.64-2.45c-1.35-0.89-2.61-2.07-3.42-3.47h-2.25c-1.08,0-1.95-0.88-1.95-1.95v-4.22
				c0-1.08,0.88-1.95,1.95-1.95h1.51v-1.35c0-4.55,3.67-8.3,8.21-8.3h1.36c4.54,0,8.21,3.75,8.21,8.3V26.94z M41.63,33.18v-6.13
				c-2.57,0.33-5.15-0.4-7.16-2.01c-1.87,1.49-4.29,2.29-6.84,2.04v5.97c0.41,1.31,1.41,2.47,2.56,3.37
				c1.57,1.23,3.35,1.96,4.32,1.96c0.99,0,2.99-0.92,4.67-2.43c0.31-0.28,0.61-0.58,0.89-0.9h-2.92c-0.29,0.38-0.75,0.63-1.26,0.63
				c-0.87,0-1.58-0.71-1.58-1.58c0-0.87,0.71-1.58,1.58-1.58c0.52,0,0.97,0.25,1.26,0.63C38.41,33.18,40.5,33.18,41.63,33.18
				L41.63,33.18z M45.04,28.83h-1.51v4.35h1.51c0.03,0,0.06-0.03,0.06-0.06v-4.22C45.1,28.86,45.07,28.83,45.04,28.83L45.04,28.83z
				 M41.62,25.15c-0.17-2.43-1.68-4.51-3.81-5.44c-0.34,1.52-1.03,2.88-1.97,4.01C37.48,24.95,39.57,25.47,41.62,25.15L41.62,25.15z
				 M35.98,19.22c-0.22-0.02-0.44-0.04-0.67-0.04h-1.36c-3.37,0-6.1,2.68-6.31,6.01C31.56,25.65,35.17,23.03,35.98,19.22
				L35.98,19.22z M30.59,41.43l3.72,2.69l4.12-2.99c-0.41-0.52-0.7-1.13-0.85-1.8c-1.19,0.61-2.31,0.95-3.06,0.95
				c-0.74,0-1.77-0.27-2.87-0.77C31.45,40.24,31.09,40.89,30.59,41.43L30.59,41.43z M30.59,41.43"/>
		</g>
	</g>
</g>
</svg>
