<?xml version="1.0" encoding="utf-8"?>
<!-- Generator: Adobe Illustrator 25.2.1, SVG Export Plug-In . SVG Version: 6.00 Build 0)  -->
<svg version="1.1" id="Layer_1" xmlns="http://www.w3.org/2000/svg" xmlns:xlink="http://www.w3.org/1999/xlink" x="0px" y="0px"
	 viewBox="0 0 68 68" style="enable-background:new 0 0 68 68;" xml:space="preserve">
<style type="text/css">
	.st0{fill:#A6A0CE;}
	.st1{fill:#FFFFFF;}
	.st2{fill:none;}
</style>
<g>
	<path class="st0" d="M34,66.5c17.95,0,32.5-14.55,32.5-32.5C66.5,16.05,51.95,1.5,34,1.5S1.5,16.05,1.5,34
		C1.5,51.95,16.05,66.5,34,66.5"/>
	<g id="Layer_2_1_" transform="translate(95.08 258.069)">
		<path id="Caminho_5677_2_" class="st1" d="M-48.1-240.46h-2.56c-1.63,0-2.96,1.32-2.96,2.96l0,0v21.63c0,1.63,1.32,2.96,2.96,2.96
			h0h2.56c1.63,0,2.96-1.32,2.96-2.96l0,0v-21.63C-45.15-239.13-46.47-240.46-48.1-240.46C-48.1-240.46-48.1-240.46-48.1-240.46z
			 M-47.27-215.87c0,0.46-0.37,0.84-0.84,0.84h0h-2.56c-0.46,0-0.84-0.37-0.84-0.84l0,0v-21.63c0-0.46,0.37-0.84,0.84-0.84l0,0h2.56
			c0.46,0,0.84,0.37,0.84,0.84l0,0L-47.27-215.87z M-74.06-212.91h2.56c1.63-0.01,2.95-1.33,2.96-2.96v-13.16
			c-0.01-1.63-1.33-2.95-2.96-2.95h-2.56c-1.63,0-2.96,1.32-2.96,2.95v13.16C-77.01-214.24-75.69-212.91-74.06-212.91L-74.06-212.91
			L-74.06-212.91z M-74.89-229.03c0-0.46,0.37-0.84,0.84-0.84h2.56c0.46,0.01,0.83,0.38,0.84,0.84v13.16
			c-0.01,0.46-0.38,0.83-0.84,0.84h-2.56c-0.46,0-0.84-0.37-0.84-0.84l0,0V-229.03z M-59.84-212.91c1.63-0.01,2.95-1.33,2.96-2.96
			v-17.39c-0.01-1.63-1.33-2.95-2.96-2.96h-2.56c-1.63,0-2.96,1.32-2.96,2.96v17.39c0,1.63,1.32,2.96,2.96,2.96l0,0L-59.84-212.91z
			 M-63.24-215.87v-17.39c0-0.46,0.37-0.84,0.84-0.84h2.56c0.46,0.01,0.83,0.38,0.84,0.84v17.39c-0.01,0.46-0.38,0.83-0.84,0.84
			h-2.56C-62.87-215.03-63.24-215.41-63.24-215.87L-63.24-215.87L-63.24-215.87z M-71.63-208.74c0,0.58,0.47,1.06,1.06,1.06l0,0
			h19.07c0.59,0,1.06-0.47,1.06-1.06s-0.47-1.06-1.06-1.06h-19.07C-71.16-209.8-71.63-209.33-71.63-208.74
			C-71.63-208.74-71.63-208.74-71.63-208.74L-71.63-208.74z"/>
	</g>
	<rect x="1.5" y="1.5" class="st2" width="65" height="65"/>
</g>
</svg>
