<?xml version="1.0" encoding="utf-8"?>
<!-- Generator: Adobe Illustrator 25.2.1, SVG Export Plug-In . SVG Version: 6.00 Build 0)  -->
<svg version="1.1" id="Layer_1" xmlns="http://www.w3.org/2000/svg" xmlns:xlink="http://www.w3.org/1999/xlink" x="0px" y="0px"
	 viewBox="0 0 68 68" style="enable-background:new 0 0 68 68;" xml:space="preserve">
<style type="text/css">
	.st0{fill:#86D3E7;}
	.st1{fill:#FFFFFF;}
</style>
<g>
	<path class="st0" d="M34,66.5c17.95,0,32.5-14.55,32.5-32.5C66.5,16.05,51.95,1.5,34,1.5S1.5,16.05,1.5,34
		C1.5,51.95,16.05,66.5,34,66.5"/>
	<g>
		<path class="st1" d="M45.04,34.51v-4.58c0-0.56-0.45-1.01-1.01-1.01H19.81c-0.56,0-1.01,0.45-1.01,1.01v16.21
			c0,0.56,0.45,1.01,1.01,1.01h12.74c1.63,2.45,4.41,4.06,7.56,4.06c5.01,0,9.08-4.07,9.08-9.08C49.2,38.95,47.54,36.13,45.04,34.51
			L45.04,34.51z M43.02,33.54c-0.45-0.15-0.91-0.27-1.39-0.35c-0.75-0.56-1.28-1.35-1.51-2.24h2.9V33.54z M23.72,30.95
			c-0.37,1.42-1.48,2.53-2.9,2.9v-2.9H23.72z M20.82,42.24c1.42,0.37,2.53,1.48,2.9,2.9h-2.9V42.24z M25.78,45.14
			c-0.43-2.53-2.43-4.53-4.96-4.96v-4.27c2.53-0.43,4.53-2.43,4.96-4.96h12.28c0.13,0.78,0.41,1.53,0.83,2.19
			c-1.62,0.22-3.11,0.87-4.35,1.83c-2.59-2.22-6.66-0.38-6.66,3.07c0,1.92,1.35,3.53,3.15,3.94c-0.02,1.09,0.15,2.15,0.51,3.16
			H25.78z M31.3,39.96c-0.81-0.26-1.39-1.02-1.39-1.92c0-1.64,1.86-2.58,3.18-1.65C32.24,37.42,31.62,38.64,31.3,39.96L31.3,39.96z
			 M40.11,49.2c-3.89,0-7.06-3.17-7.06-7.06c0-3.99,3.37-7.52,8.08-6.99c3.41,0.5,6.04,3.44,6.04,6.99
			C47.18,46.04,44.01,49.2,40.11,49.2L40.11,49.2z M40.11,49.2"/>
		<path class="st1" d="M41.8,41.55c-0.84-0.66-1.96-0.79-2.17-1.17c-0.05-0.09,0.01-0.28,0.16-0.39c0.22-0.15,0.73-0.09,0.9,0.07
			c0.41,0.38,1.05,0.35,1.43-0.06c0.38-0.41,0.35-1.05-0.06-1.43c-0.27-0.25-0.6-0.43-0.97-0.54c-0.01-0.55-0.46-0.99-1.01-0.99
			c-0.56,0-1.01,0.45-1.01,1.01v0.05c-1.29,0.53-1.86,2.08-1.21,3.26c0.68,1.23,2.09,1.31,2.7,1.79c0.24,0.19,0.26,0.35,0.25,0.46
			c-0.02,0.21-0.19,0.43-0.41,0.53c-0.33,0.16-1.02,0.05-1.43-0.22c-0.47-0.3-1.09-0.17-1.4,0.29c-0.31,0.47-0.17,1.09,0.29,1.4
			c0.33,0.22,0.75,0.4,1.2,0.5v0.02c0,0.56,0.45,1.01,1.01,1.01c0.56,0,1.01-0.45,1.01-1.01v-0.1c0.91-0.35,1.61-1.2,1.72-2.2
			C42.91,42.95,42.54,42.13,41.8,41.55L41.8,41.55z M41.8,41.55"/>
		<path class="st1" d="M43.38,24.64c0.63,0.64,1.73,0.19,1.73-0.71v-6.14c0-0.56-0.45-1.01-1.01-1.01h-6.05
			c-0.89,0-1.35,1.08-0.72,1.72l2.3,2.33l-3.73,3.7l-7.37-7.33c-0.4-0.39-1.03-0.39-1.43,0l-8,8.04c-0.39,0.4-0.39,1.03,0,1.43
			c0.4,0.39,1.03,0.39,1.43,0l7.29-7.33l7.37,7.33c0.39,0.39,1.03,0.39,1.42,0l4.44-4.4L43.38,24.64L43.38,24.64z M43.09,21.47
			l-2.63-2.67h2.63V21.47z M43.09,18.8"/>
	</g>
</g>
</svg>
